<?xml version="1.0" encoding="UTF-8"?>
<svg id="katman_1" data-name="katman 1" xmlns="http://www.w3.org/2000/svg" viewBox="0 0 61 17">
  <defs>
    <style>
      .cls-1 {
        fill: #000;
      }

      .cls-1, .cls-2 {
        stroke-width: 0px;
      }

      .cls-2 {
        fill: #fdd41d;
      }
    </style>
  </defs>
  <path class="cls-1" d="M18.1,14.32h-8.63c-1.62,0-3.24,0-4.86,0-.67,0-1.34-.01-2.01-.02-.37,0-.75,0-1.12-.03-.26-.02-.79-.12-.77-.16-.36-.04-.5-.33-.65-.61-.02-.04-.03-.1-.04-.15-.06-.63-.03-1.26.1-1.88.04-.17-.04.2.06-.52.07-.5.1-1,.22-1.49.09-.38.11-.77.17-1.16.03-.2.05-.39.08-.59.02-.16.06-.31.08-.47.06-.48.09-.96.16-1.44.07-.45.14-.91.26-1.35.12-.46.35-.89.76-1.14.19-.11.31-.3.5-.38.17-.07.34-.12.52-.15.24-.04.49-.06.73-.06,8.58,0,17.16,0,25.73,0,5.74,0,11.49-.02,17.23-.02,1.92,0,3.84.05,5.75.05,1.62,0,3.24-.04,4.87-.05.3,0,.5.02.8.07.49.08.95.45,1.27.81.06.06.08.15.12.23-.37-.61.17.2.22.31.09.21.18.43.23.66.06.27.08.55.11.82.05.37.09.74.14,1.12.05.44.1.89.17,1.33.06.39.13.78.19,1.17.06.4.12.81.18,1.21.04.32.07.64.12.96.06.38.18.75.2,1.13.02.32.03.67-.1.95-.14.3-.3.69-.77.64.99-.32-.08.18-.27.15-.14.05-.6.07-.9.07-10.49,0-20.97,0-31.46,0-1.02,0-2.05.02-3.07.02-.94,0-1.88-.02-2.82-.02-1.16,0-2.33,0-3.49,0v.02ZM43.71,13.95s0,0,0,0c1.28,0,2.56,0,3.84,0,3.7,0,7.4,0,11.09,0,.29,0,.57-.01.86-.03.86-.05,1.23-.5,1.11-1.34-.1-.79-.21-1.57-.32-2.36-.24-1.72-.49-3.43-.72-5.15-.18-1.31-.98-2.02-2.29-2.02-3.39,0-6.78,0-10.17,0-5.81,0-11.63,0-17.44,0-1.07,0-1.96.71-2.14,1.75-.15.9-.26,1.82-.38,2.72-.18,1.3-.36,2.59-.53,3.89-.07.51-.15,1.02-.16,1.54-.02.49.26.82.75.91.31.06.63.08.94.08,5.19,0,10.38,0,15.56,0ZM21.11,9.74c-.46-.67-.9-1.29-1.35-1.93.08-.05.13-.08.18-.11,1.27-.66,1.29-2.36.59-3.15-.48-.55-1.1-.78-1.8-.81-.93-.03-1.85-.03-2.78-.04-.05,0-.1.01-.17.02,0,.09-.01.18-.01.26,0,1.82,0,3.64,0,5.46,0,.06,0,.13,0,.18.01.04.06.1.09.1.42,0,.84,0,1.28,0,0-.12,0-.2,0-.28,0-.4,0-.8,0-1.2,0-.15.05-.2.2-.2.29,0,.59,0,.88,0,.16,0,.25.05.34.18.31.46.63.92.95,1.37.05.07.17.14.26.14.42.01.85,0,1.32,0ZM8.37,9.74c-.9-1.13-1.77-2.23-2.65-3.35.83-.9,1.66-1.78,2.5-2.69-.47,0-.89-.01-1.31,0-.12,0-.27.07-.36.15-.44.44-.86.89-1.28,1.34-.41.43-.82.86-1.26,1.32,0-.11-.01-.17-.01-.23,0-.78-.02-1.56-.01-2.34,0-.21-.06-.27-.26-.26-.28.02-.56.02-.83,0-.22-.02-.27.07-.27.27,0,1.84,0,3.67,0,5.51,0,.08.01.16.02.25h1.34c0-.44,0-.86,0-1.28,0-.08,0-.19.04-.24.25-.29.52-.56.8-.85.05.06.08.09.1.12.57.7,1.14,1.4,1.72,2.09.07.08.18.16.27.16.47.02.94,0,1.47,0ZM15.42,9.74c-.02-.06-.02-.09-.04-.13-.86-1.93-1.72-3.85-2.59-5.77-.03-.06-.13-.13-.2-.13-.35-.01-.69,0-1.04,0-.14,0-.2.06-.25.18-.7,1.58-1.41,3.15-2.11,4.72-.16.37-.33.74-.5,1.14.43,0,.82,0,1.22,0,.15,0,.22-.05.27-.19.12-.32.26-.63.38-.94.05-.12.11-.18.25-.18.83,0,1.65,0,2.48,0,.13,0,.19.04.24.16.13.34.27.67.42,1,.03.06.1.13.15.13.44.01.88,0,1.33,0ZM26.03,4.14c-.09-.05-.16-.09-.23-.13-.5-.25-1.03-.36-1.58-.4-.74-.04-1.46.05-2.1.48-.89.61-1.06,2.15.12,2.75.26.13.54.21.82.3.48.15.97.26,1.44.42.24.08.43.25.41.55-.01.25-.18.48-.5.53-.36.06-.73.09-1.1.06-.57-.04-1.09-.26-1.57-.59-.12.27-.21.54-.35.77-.13.23-.05.32.14.42.71.38,1.48.53,2.27.52.54,0,1.06-.09,1.54-.35.63-.35.97-.88.94-1.6-.03-.75-.5-1.16-1.16-1.4-.27-.1-.56-.16-.84-.25-.39-.11-.79-.2-1.17-.36-.44-.18-.46-.71-.06-.97.08-.05.16-.1.25-.11.3-.03.62-.11.91-.06.47.08.93.24,1.42.38.12-.29.25-.62.39-.97ZM21.75,13.62c0-.52,0-1.01,0-1.5,0-.15.04-.31.1-.44.15-.34.54-.51.98-.45.33.05.56.27.61.66.03.26.03.52.03.78,0,.31,0,.63,0,.95h.31c0-.11.01-.21.02-.3.01-.45,0-.91.04-1.36.05-.49.44-.76.98-.73.44.02.69.3.7.81,0,.25,0,.49,0,.74,0,.28,0,.57,0,.85h.31c0-.65.03-1.29-.01-1.92-.03-.46-.43-.76-.89-.79-.49-.03-.91.11-1.22.55-.23-.37-.53-.55-.95-.56-.4,0-.73.13-1.01.46-.01-.18-.02-.31-.03-.44h-.31v2.69h.34ZM6.35,10.92c0,.65-.03,1.28.01,1.91.02.33.24.57.56.71.48.21,1.04.1,1.41-.27.02-.02.05-.04.1-.07.01.16.02.28.03.41h.32v-2.69h-.34c0,.48,0,.94,0,1.4,0,.18-.04.37-.11.54-.15.36-.52.52-1.02.46-.33-.04-.55-.24-.61-.63-.04-.26-.03-.52-.03-.78,0-.33,0-.66,0-.99h-.3ZM17.05,13.62h2.23v-.3h-1.72c.08-.11.12-.17.17-.23.47-.61.95-1.21,1.42-1.83.07-.09.08-.21.13-.33h-2.16c0,.1,0,.18.02.3h1.65c-.55.7-1.07,1.36-1.58,2.03-.07.09-.1.22-.16.36ZM4.09,10.92c-.23,0-.44,0-.65,0-.12,0-.17-.04-.16-.16,0-.14,0-.28,0-.42h-.32c0,.2-.02.38-.03.58h-.46v.31h.46c0,.11.02.2.02.29,0,.46,0,.92,0,1.39,0,.3.1.56.39.67.32.12.64.11.94-.11-.04-.08-.08-.15-.11-.22-.62.26-.9.08-.9-.59,0-.33,0-.66,0-.99,0-.14,0-.29,0-.46h.82v-.3ZM12.53,10.92c-.42-.01-.74.15-.99.51-.01-.21-.02-.35-.02-.49h-.29v2.69h.3c0-.11.01-.2.02-.3,0-.44,0-.88.03-1.32.03-.38.28-.65.65-.74.1-.02.21-.04.31-.06v-.29ZM14.65,11.48v2.13h.33v-2.13h-.33ZM14.65,10.92v.33h.33v-.33h-.33Z"/>
  <path class="cls-2" d="M43.71,13.95c-5.19,0-10.38,0-15.56,0-.31,0-.63-.02-.94-.08-.49-.1-.77-.42-.75-.91.02-.51.1-1.03.16-1.54.17-1.3.35-2.6.53-3.89.12-.91.23-1.82.38-2.72.18-1.04,1.08-1.75,2.14-1.75,5.81,0,11.63,0,17.44,0,3.39,0,6.78,0,10.17,0,1.31,0,2.11.72,2.29,2.02.24,1.72.48,3.43.72,5.15.11.79.22,1.57.32,2.36.11.84-.26,1.29-1.11,1.34-.28.02-.57.03-.86.03-3.7,0-7.4,0-11.09,0-1.28,0-2.56,0-3.84,0,0,0,0,0,0,0ZM43.52,12.77c4.76,0,9.53,0,14.29,0,.12,0,.23,0,.35,0,.37-.02.66-.37.62-.73-.04-.36-.09-.72-.14-1.08-.27-2.03-.55-4.06-.82-6.09-.07-.52-.21-.65-.73-.65-.99,0-1.98,0-2.96,0-5.31,0-10.62,0-15.94,0-2.77,0-5.54,0-8.32,0-.39,0-.54.13-.6.52-.07.45-.13.9-.19,1.35-.13.99-.26,1.99-.4,2.98-.13.97-.27,1.94-.39,2.91-.06.49.23.79.73.79,4.83,0,9.67,0,14.5,0Z"/>
  <path class="cls-2" d="M21.11,9.74c-.47,0-.9,0-1.32,0-.09,0-.2-.07-.26-.14-.33-.45-.64-.91-.95-1.37-.09-.13-.18-.19-.34-.18-.29.01-.59.01-.88,0-.15,0-.2.05-.2.2,0,.4,0,.8,0,1.2,0,.08,0,.17,0,.28-.44,0-.86,0-1.28,0-.03,0-.08-.06-.09-.1-.02-.06,0-.12,0-.18,0-1.82,0-3.64,0-5.46,0-.08,0-.17.01-.26.07,0,.12-.02.17-.02.93,0,1.85,0,2.78.04.7.03,1.33.26,1.8.81.69.8.68,2.5-.59,3.15-.05.03-.1.06-.18.11.44.64.88,1.27,1.35,1.93ZM17.16,4.87c0,.64,0,1.3,0,1.95,0,.05.1.13.16.13.45,0,.91,0,1.36-.03.55-.05.9-.45.91-.98.01-.6-.27-.99-.86-1.06-.51-.06-1.02-.01-1.58-.01Z"/>
  <path class="cls-2" d="M8.37,9.74c-.53,0-1,0-1.47,0-.09,0-.21-.08-.27-.16-.58-.69-1.14-1.4-1.72-2.09-.02-.03-.05-.06-.1-.12-.27.29-.54.56-.8.85-.05.05-.04.16-.04.24,0,.42,0,.84,0,1.28h-1.34c0-.09-.02-.17-.02-.25,0-1.84,0-3.67,0-5.51,0-.21.05-.29.27-.27.28.02.56.02.83,0,.2-.01.27.05.26.26,0,.78,0,1.56.01,2.34,0,.06,0,.12.01.23.44-.46.85-.89,1.26-1.32.43-.45.85-.9,1.28-1.34.09-.09.23-.15.36-.15.42-.02.85,0,1.31,0-.85.91-1.67,1.8-2.5,2.69.88,1.11,1.76,2.21,2.65,3.35Z"/>
  <path class="cls-2" d="M15.42,9.74c-.45,0-.89,0-1.33,0-.05,0-.13-.08-.15-.13-.15-.33-.29-.67-.42-1-.05-.12-.11-.16-.24-.16-.83,0-1.65,0-2.48,0-.14,0-.21.05-.25.18-.12.32-.26.63-.38.94-.05.13-.12.19-.27.19-.39-.01-.78,0-1.22,0,.18-.4.34-.77.5-1.14.7-1.57,1.41-3.15,2.11-4.72.05-.12.11-.18.25-.18.35,0,.69,0,1.04,0,.07,0,.18.07.2.13.87,1.92,1.73,3.85,2.59,5.77.01.03.02.07.04.13ZM13.01,7.39c-.32-.78-.63-1.52-.97-2.32-.34.81-.64,1.56-.96,2.32h1.93Z"/>
  <path class="cls-2" d="M26.03,4.14c-.14.35-.28.68-.39.97-.49-.13-.95-.3-1.42-.38-.29-.05-.61.03-.91.06-.09,0-.17.06-.25.11-.4.26-.38.79.06.97.38.15.78.24,1.17.36.28.08.57.15.84.25.66.24,1.13.65,1.16,1.4.03.73-.31,1.26-.94,1.6-.48.26-1,.35-1.54.35-.8,0-1.56-.14-2.27-.52-.19-.1-.28-.2-.14-.42.14-.24.23-.5.35-.77.49.33,1.01.55,1.57.59.36.03.74,0,1.1-.06.32-.05.49-.28.5-.53.01-.3-.17-.47-.41-.55-.47-.16-.96-.27-1.44-.42-.28-.08-.57-.17-.82-.3-1.18-.6-1.01-2.15-.12-2.75.64-.44,1.36-.53,2.1-.48.55.03,1.08.14,1.58.4.07.04.15.08.23.13Z"/>
  <path class="cls-2" d="M21.75,13.62h-.34v-2.69h.31c.01.13.02.26.03.44.28-.33.61-.46,1.01-.46.42,0,.72.19.95.56.31-.44.72-.58,1.22-.55.46.03.86.32.89.79.04.63.01,1.27.01,1.92h-.31c0-.28,0-.57,0-.85,0-.25,0-.49,0-.74-.02-.51-.26-.79-.7-.81-.54-.03-.93.24-.98.73-.04.45-.03.91-.04,1.36,0,.1-.01.2-.02.3h-.31c0-.32,0-.64,0-.95,0-.26,0-.53-.03-.78-.05-.39-.28-.61-.61-.66-.44-.06-.82.11-.98.45-.06.14-.1.29-.1.44-.01.49,0,.99,0,1.5Z"/>
  <path class="cls-2" d="M6.35,10.92h.3c0,.34,0,.66,0,.99,0,.26,0,.53.03.78.06.38.28.59.61.63.5.06.86-.09,1.02-.46.07-.17.1-.36.11-.54.01-.46,0-.92,0-1.4h.34v2.69h-.32c0-.13-.02-.26-.03-.41-.04.03-.07.05-.1.07-.36.37-.93.48-1.41.27-.32-.14-.54-.38-.56-.71-.04-.63-.01-1.26-.01-1.91Z"/>
  <path class="cls-2" d="M17.05,13.62c.06-.14.09-.26.16-.36.51-.67,1.03-1.33,1.58-2.03h-1.65c0-.12-.01-.2-.02-.3h2.16c-.05.12-.07.25-.13.33-.47.61-.95,1.22-1.42,1.83-.05.06-.09.12-.17.23h1.72v.3h-2.23Z"/>
  <path class="cls-2" d="M4.09,10.92v.3h-.82c0,.17,0,.31,0,.46,0,.33,0,.66,0,.99,0,.67.28.85.9.59.03.07.07.13.11.22-.3.22-.62.23-.94.11-.29-.11-.39-.37-.39-.67,0-.46,0-.92,0-1.39,0-.09-.01-.18-.02-.29h-.46v-.31h.46c.01-.2.02-.38.03-.58h.32c0,.13,0,.28,0,.42,0,.12.04.17.16.16.21,0,.43,0,.65,0Z"/>
  <path class="cls-2" d="M12.53,10.92v.29c-.1.02-.2.04-.31.06-.37.09-.63.36-.65.74-.03.44-.02.88-.03,1.32,0,.1,0,.2-.02.3h-.3v-2.69h.29c0,.14.01.29.02.49.26-.36.57-.52.99-.51Z"/>
  <path class="cls-2" d="M14.65,11.48h.33v2.13h-.33v-2.13Z"/>
  <path class="cls-2" d="M14.65,10.92h.33v.33h-.33v-.33Z"/>
  <path class="cls-1" d="M43.52,12.77c-4.83,0-9.67,0-14.5,0-.5,0-.79-.3-.73-.79.12-.97.26-1.94.39-2.91.13-.99.26-1.99.4-2.98.06-.45.12-.9.19-1.35.06-.39.21-.52.6-.52,2.77,0,5.54,0,8.32,0,5.31,0,10.62,0,15.94,0,.99,0,1.98,0,2.96,0,.52,0,.66.13.73.65.27,2.03.55,4.06.82,6.09.05.36.1.72.14,1.08.04.36-.25.71-.62.73-.12,0-.23,0-.35,0-4.76,0-9.53,0-14.29,0ZM46.06,8.2c.83-.9,1.66-1.78,2.5-2.69-.48,0-.92,0-1.35,0-.11,0-.24.07-.31.15-.78.81-1.56,1.63-2.33,2.45-.06.06-.12.12-.24.22v-2.83c-.38,0-.75.01-1.1,0-.22-.01-.27.07-.27.27,0,1.84,0,3.67,0,5.51,0,.08,0,.16.01.25h1.36c0-.44,0-.88,0-1.31,0-.08-.01-.18.03-.22.27-.27.56-.52.84-.79.02.02.05.06.09.1.56.68,1.11,1.36,1.67,2.04.06.07.15.17.22.18.5.02.99,0,1.53,0-.9-1.13-1.77-2.23-2.65-3.35ZM35.55,11.55c.45,0,.86,0,1.27,0,.07,0,.16-.08.19-.14.15-.32.28-.65.41-.98.04-.11.1-.17.23-.17.83,0,1.67,0,2.5,0,.13,0,.19.05.24.16.12.32.26.64.39.96.03.07.1.16.15.17.44.01.89,0,1.36,0-.1-.22-.18-.4-.26-.58-.78-1.74-1.57-3.48-2.34-5.23-.07-.16-.16-.22-.33-.21-.31.01-.62.01-.93,0-.16,0-.24.05-.31.2-.57,1.3-1.16,2.61-1.74,3.91-.28.62-.56,1.25-.85,1.91ZM53.5,5.94c-.09-.05-.16-.09-.23-.13-.68-.32-1.39-.43-2.14-.39-.47.03-.92.12-1.33.35-.6.33-.92.84-.92,1.52,0,.61.27,1.07.82,1.35.27.14.57.22.87.32.48.15.96.26,1.44.42.24.08.41.25.39.54-.01.24-.18.47-.48.52-.38.06-.77.1-1.14.07-.56-.04-1.07-.26-1.55-.59-.12.28-.23.55-.36.79-.1.19-.06.28.11.38.63.36,1.32.51,2.03.54.63.03,1.25-.04,1.82-.35.62-.34.96-.86.94-1.58-.02-.74-.46-1.17-1.12-1.4-.41-.15-.84-.24-1.27-.36-.28-.08-.57-.16-.83-.28-.37-.17-.41-.63-.1-.9.09-.08.21-.14.32-.17.47-.15.95-.11,1.41.02.3.09.59.21.9.33.13-.33.27-.66.41-1.01ZM32.56,6.64v4.9h1.37v-4.9h1.92c0-.29-.01-.55,0-.81.02-.23-.05-.3-.29-.3-1.56.01-3.12,0-4.68,0-.08,0-.16,0-.25.02v1.09h1.93ZM54.77,7.17v4.35h1.34v-4.35h-1.34ZM54.76,6.57h1.35v-1.05h-1.35v1.05Z"/>
  <path class="cls-1" d="M17.16,4.87c.55,0,1.07-.04,1.58.01.59.07.87.46.86,1.06-.01.53-.36.93-.91.98-.45.04-.91.03-1.36.03-.05,0-.16-.09-.16-.13-.01-.65,0-1.31,0-1.95Z"/>
  <path class="cls-1" d="M13.01,7.39h-1.93c.32-.77.63-1.51.96-2.32.34.81.64,1.55.97,2.32Z"/>
  <path class="cls-2" d="M46.06,8.2c.88,1.11,1.75,2.21,2.65,3.35-.54,0-1.04,0-1.53,0-.08,0-.16-.1-.22-.18-.56-.68-1.12-1.36-1.67-2.04-.03-.04-.07-.08-.09-.1-.28.26-.57.52-.84.79-.04.04-.03.15-.03.22,0,.43,0,.86,0,1.31h-1.36c0-.08-.01-.16-.01-.25,0-1.84,0-3.67,0-5.51,0-.21.04-.29.27-.27.36.02.72,0,1.1,0v2.83c.11-.1.18-.16.24-.22.78-.82,1.55-1.63,2.33-2.45.08-.08.2-.14.31-.15.44-.02.88,0,1.35,0-.84.9-1.67,1.79-2.5,2.69Z"/>
  <path class="cls-2" d="M35.55,11.55c.3-.66.58-1.29.85-1.91.58-1.3,1.16-2.6,1.74-3.91.07-.15.14-.21.31-.2.31.01.62.01.93,0,.17,0,.26.05.33.21.77,1.75,1.56,3.49,2.34,5.23.08.18.16.36.26.58-.48,0-.92,0-1.36,0-.05,0-.12-.1-.15-.17-.14-.32-.27-.64-.39-.96-.04-.12-.11-.16-.24-.16-.83,0-1.67,0-2.5,0-.13,0-.19.05-.23.17-.13.33-.26.66-.41.98-.03.07-.12.14-.19.14-.41.01-.82,0-1.27,0ZM39.88,9.19c-.32-.77-.63-1.53-.97-2.35-.34.82-.65,1.57-.97,2.35h1.94Z"/>
  <path class="cls-2" d="M53.5,5.94c-.14.35-.28.68-.41,1.01-.31-.12-.6-.24-.9-.33-.47-.14-.94-.17-1.41-.02-.11.04-.23.1-.32.17-.32.26-.28.72.1.9.26.12.55.2.83.28.42.12.85.22,1.27.36.66.23,1.1.66,1.12,1.4.02.72-.32,1.24-.94,1.58-.57.31-1.19.38-1.82.35-.72-.03-1.4-.18-2.03-.54-.18-.1-.22-.19-.11-.38.14-.25.24-.52.36-.79.48.33.99.54,1.55.59.38.03.77,0,1.14-.07.3-.05.47-.28.48-.52.02-.28-.16-.46-.39-.54-.47-.16-.96-.28-1.44-.42-.29-.09-.59-.18-.87-.32-.54-.27-.82-.74-.82-1.35,0-.68.32-1.19.92-1.52.41-.23.86-.32,1.33-.35.74-.04,1.46.07,2.14.39.08.04.15.08.23.13Z"/>
  <path class="cls-2" d="M32.56,6.64h-1.93v-1.09c.09,0,.17-.02.25-.02,1.56,0,3.12,0,4.68,0,.24,0,.31.07.29.3-.02.26,0,.52,0,.81h-1.92v4.9h-1.37v-4.9Z"/>
  <path class="cls-2" d="M54.77,7.17h1.34v4.35h-1.34v-4.35Z"/>
  <path class="cls-2" d="M54.76,6.57v-1.05h1.35v1.05h-1.35Z"/>
  <path class="cls-1" d="M39.88,9.19h-1.94c.32-.77.63-1.52.97-2.35.34.82.65,1.57.97,2.35Z"/>
</svg>